<svg width="32" height="32" viewBox="0 0 32 32" fill="none" xmlns="http://www.w3.org/2000/svg">
  <!-- Background circle -->
  <circle cx="16" cy="16" r="16" fill="#1e40af"/>
  
  <!-- Book icon -->
  <path d="M8 6h16c1.1 0 2 .9 2 2v16c0 1.1-.9 2-2 2H8c-1.1 0-2-.9-2-2V8c0-1.1.9-2 2-2z" fill="#ffffff" opacity="0.9"/>
  
  <!-- Book spine -->
  <rect x="10" y="8" width="2" height="16" fill="#1e40af"/>
  
  <!-- Book pages -->
  <rect x="13" y="10" width="8" height="1" fill="#1e40af" opacity="0.6"/>
  <rect x="13" y="12" width="6" height="1" fill="#1e40af" opacity="0.6"/>
  <rect x="13" y="14" width="7" height="1" fill="#1e40af" opacity="0.6"/>
  <rect x="13" y="16" width="5" height="1" fill="#1e40af" opacity="0.6"/>
  <rect x="13" y="18" width="8" height="1" fill="#1e40af" opacity="0.6"/>
  <rect x="13" y="20" width="6" height="1" fill="#1e40af" opacity="0.6"/>
</svg>
